<svg width="32" height="32" viewBox="0 0 32 32" fill="none" xmlns="http://www.w3.org/2000/svg">
<path d="M16 1.92C14.1509 1.91958 12.3198 2.28348 10.6114 2.99092C8.90291 3.69836 7.35058 4.73546 6.04304 6.043C4.73551 7.35053 3.6984 8.90286 2.99096 10.6113C2.28353 12.3198 1.91962 14.1509 1.92004 16C1.92004 18.7848 2.74582 21.507 4.29295 23.8224C5.84008 26.1379 8.03908 27.9425 10.6119 29.0082C13.1846 30.0739 16.0157 30.3527 18.7469 29.8095C21.4782 29.2662 23.987 27.9252 25.9561 25.9561C27.9252 23.9869 29.2662 21.4781 29.8095 18.7469C30.3528 16.0156 30.0739 13.1846 29.0083 10.6118C27.9426 8.03903 26.1379 5.84004 23.8225 4.29291C21.507 2.74578 18.7848 1.92 16 1.92ZM21.5648 23.2032C21.288 23.2032 21.0944 23.0976 20.8912 22.9744C18.9888 21.8208 16.632 21.216 14.0784 21.216C12.776 21.216 11.3696 21.3712 9.90244 21.672L9.72324 21.7168C9.53764 21.7616 9.34724 21.8112 9.20164 21.8112C9.06284 21.8133 8.92501 21.7877 8.79626 21.7358C8.66751 21.6839 8.55042 21.6068 8.45189 21.509C8.35336 21.4112 8.27537 21.2948 8.2225 21.1664C8.16964 21.038 8.14296 20.9004 8.14404 20.7616C8.14404 20.1648 8.48004 19.7424 9.04324 19.6368C10.6964 19.2484 12.3883 19.0487 14.0864 19.0416C17.0544 19.0416 19.7072 19.7296 21.976 21.088C22.3648 21.3152 22.6096 21.5776 22.6096 22.1568C22.6092 22.4339 22.4991 22.6996 22.3033 22.8957C22.1075 23.0918 21.842 23.2024 21.5648 23.2032ZM23.0256 19.1056C22.6944 19.1056 22.4768 18.9792 22.2848 18.8672C18.856 16.8336 13.752 16.1584 9.54724 17.2784C9.48292 17.2971 9.41891 17.3168 9.35524 17.3376C9.19684 17.3872 9.04964 17.4368 8.84164 17.4368C8.50839 17.4355 8.18926 17.302 7.95436 17.0656C7.71946 16.8292 7.58799 16.5093 7.58884 16.176C7.58884 15.5056 7.93924 15.0368 8.57124 14.8576C10.192 14.4128 11.7136 14.1184 13.904 14.1184C17.4432 14.1184 20.8752 15.0064 23.5648 16.616C24.0544 16.896 24.2768 17.2784 24.2768 17.8496C24.2773 18.182 24.1457 18.501 23.9111 18.7365C23.6765 18.972 23.3581 19.1048 23.0256 19.1056ZM24.6832 14.4336C24.3712 14.4336 24.1792 14.3584 23.8912 14.2032C21.5664 12.808 17.9392 11.9776 14.1808 11.9776C12.2224 11.9776 10.4432 12.1936 8.89124 12.6128C8.83863 12.6259 8.78635 12.6403 8.73444 12.656C8.54609 12.7204 8.34936 12.7571 8.15044 12.7648C7.95569 12.7659 7.76268 12.7281 7.58274 12.6536C7.4028 12.579 7.23956 12.4693 7.10259 12.3309C6.96563 12.1924 6.8577 12.028 6.78513 11.8473C6.71257 11.6665 6.67685 11.4731 6.68004 11.2784C6.68004 10.5536 7.08644 10 7.76804 9.7984C9.64164 9.2448 11.7984 8.9648 14.1776 8.9648C18.4624 8.9648 22.5392 9.9168 25.3632 11.5744C25.8944 11.8768 26.1552 12.3344 26.1552 12.9696C26.1568 13.1629 26.1196 13.3547 26.0461 13.5335C25.9726 13.7123 25.8641 13.8747 25.727 14.011C25.5899 14.1474 25.4269 14.255 25.2477 14.3275C25.0685 14.4001 24.8766 14.4362 24.6832 14.4336Z" fill="black"/>
</svg>
